<svg id="visual" viewBox="0 0 960 540" width="960" height="540" xmlns="http://www.w3.org/2000/svg" xmlns:xlink="http://www.w3.org/1999/xlink" version="1.1"><g stroke-width="1" stroke-linejoin="bevel"><path d="M476 270L435 272L480 312Z" fill="#731e05" stroke="#731e05"></path><path d="M435 272L430 314L480 312Z" fill="#531601" stroke="#531601"></path><path d="M430 314L433 361L480 312Z" fill="#a52a02" stroke="#a52a02"></path><path d="M479 362L525 317L480 312Z" fill="#531601" stroke="#531601"></path><path d="M480 312L526 267L476 270Z" fill="#531601" stroke="#531601"></path><path d="M433 361L479 362L480 312Z" fill="#942604" stroke="#942604"></path><path d="M483 222L431 225L476 270Z" fill="#5b1802" stroke="#5b1802"></path><path d="M476 270L431 225L435 272Z" fill="#531601" stroke="#531601"></path><path d="M435 272L387 266L430 314Z" fill="#531601" stroke="#531601"></path><path d="M525 317L526 267L480 312Z" fill="#531601" stroke="#531601"></path><path d="M431 225L387 266L435 272Z" fill="#a52a02" stroke="#a52a02"></path><path d="M430 314L383 357L433 361Z" fill="#6b1c04" stroke="#6b1c04"></path><path d="M526 267L483 222L476 270Z" fill="#5b1802" stroke="#5b1802"></path><path d="M387 266L383 313L430 314Z" fill="#7b2005" stroke="#7b2005"></path><path d="M383 313L383 357L430 314Z" fill="#942604" stroke="#942604"></path><path d="M479 362L528 362L525 317Z" fill="#531601" stroke="#531601"></path><path d="M525 317L572 313L526 267Z" fill="#a52a02" stroke="#a52a02"></path><path d="M429 182L384 225L431 225Z" fill="#731e05" stroke="#731e05"></path><path d="M431 225L384 225L387 266Z" fill="#7b2005" stroke="#7b2005"></path><path d="M387 266L339 269L383 313Z" fill="#832205" stroke="#832205"></path><path d="M579 227L530 222L526 267Z" fill="#942604" stroke="#942604"></path><path d="M526 267L530 222L483 222Z" fill="#531601" stroke="#531601"></path><path d="M434 407L483 404L479 362Z" fill="#7b2005" stroke="#7b2005"></path><path d="M479 362L483 404L528 362Z" fill="#5b1802" stroke="#5b1802"></path><path d="M434 407L479 362L433 361Z" fill="#531601" stroke="#531601"></path><path d="M483 180L429 182L483 222Z" fill="#5b1802" stroke="#5b1802"></path><path d="M483 222L429 182L431 225Z" fill="#7b2005" stroke="#7b2005"></path><path d="M530 222L483 180L483 222Z" fill="#7b2005" stroke="#7b2005"></path><path d="M382 406L434 407L433 361Z" fill="#631a03" stroke="#631a03"></path><path d="M528 362L572 313L525 317Z" fill="#8c2405" stroke="#8c2405"></path><path d="M384 225L339 269L387 266Z" fill="#832205" stroke="#832205"></path><path d="M383 313L333 318L383 357Z" fill="#a52a02" stroke="#a52a02"></path><path d="M572 313L577 272L526 267Z" fill="#9c2803" stroke="#9c2803"></path><path d="M339 269L333 318L383 313Z" fill="#832205" stroke="#832205"></path><path d="M383 357L382 406L433 361Z" fill="#8c2405" stroke="#8c2405"></path><path d="M524 446L526 405L483 404Z" fill="#942604" stroke="#942604"></path><path d="M483 404L526 405L528 362Z" fill="#6b1c04" stroke="#6b1c04"></path><path d="M528 362L578 358L572 313Z" fill="#a52a02" stroke="#a52a02"></path><path d="M335 404L382 406L383 357Z" fill="#531601" stroke="#531601"></path><path d="M336 183L339 225L384 225Z" fill="#6b1c04" stroke="#6b1c04"></path><path d="M384 225L339 225L339 269Z" fill="#631a03" stroke="#631a03"></path><path d="M339 269L284 311L333 318Z" fill="#942604" stroke="#942604"></path><path d="M530 222L526 176L483 180Z" fill="#531601" stroke="#531601"></path><path d="M381 137L382 177L429 182Z" fill="#6b1c04" stroke="#6b1c04"></path><path d="M573 183L526 176L530 222Z" fill="#942604" stroke="#942604"></path><path d="M333 318L335 356L383 357Z" fill="#832205" stroke="#832205"></path><path d="M579 408L578 358L528 362Z" fill="#9c2803" stroke="#9c2803"></path><path d="M623 311L621 269L577 272Z" fill="#6b1c04" stroke="#6b1c04"></path><path d="M435 135L429 182L483 180Z" fill="#7b2005" stroke="#7b2005"></path><path d="M429 182L382 177L384 225Z" fill="#832205" stroke="#832205"></path><path d="M621 269L579 227L577 272Z" fill="#7b2005" stroke="#7b2005"></path><path d="M577 272L579 227L526 267Z" fill="#7b2005" stroke="#7b2005"></path><path d="M431 451L476 447L434 407Z" fill="#8c2405" stroke="#8c2405"></path><path d="M434 407L476 447L483 404Z" fill="#942604" stroke="#942604"></path><path d="M482 133L435 135L483 180Z" fill="#531601" stroke="#531601"></path><path d="M382 406L431 451L434 407Z" fill="#7b2005" stroke="#7b2005"></path><path d="M579 227L573 183L530 222Z" fill="#a52a02" stroke="#a52a02"></path><path d="M526 176L482 133L483 180Z" fill="#942604" stroke="#942604"></path><path d="M530 138L482 133L526 176Z" fill="#9c2803" stroke="#9c2803"></path><path d="M334 137L336 183L382 177Z" fill="#a52a02" stroke="#a52a02"></path><path d="M382 177L336 183L384 225Z" fill="#8c2405" stroke="#8c2405"></path><path d="M339 225L286 267L339 269Z" fill="#8c2405" stroke="#8c2405"></path><path d="M335 356L335 404L383 357Z" fill="#942604" stroke="#942604"></path><path d="M382 406L381 449L431 451Z" fill="#9c2803" stroke="#9c2803"></path><path d="M288 363L335 404L335 356Z" fill="#a52a02" stroke="#a52a02"></path><path d="M623 311L577 272L572 313Z" fill="#731e05" stroke="#731e05"></path><path d="M579 227L624 223L573 183Z" fill="#631a03" stroke="#631a03"></path><path d="M476 447L524 446L483 404Z" fill="#731e05" stroke="#731e05"></path><path d="M526 405L579 408L528 362Z" fill="#531601" stroke="#531601"></path><path d="M573 452L524 446L524 492Z" fill="#a52a02" stroke="#a52a02"></path><path d="M621 363L623 311L578 358Z" fill="#531601" stroke="#531601"></path><path d="M578 358L623 311L572 313Z" fill="#a52a02" stroke="#a52a02"></path><path d="M573 452L579 408L526 405Z" fill="#942604" stroke="#942604"></path><path d="M573 183L530 138L526 176Z" fill="#6b1c04" stroke="#6b1c04"></path><path d="M289 221L286 267L339 225Z" fill="#5b1802" stroke="#5b1802"></path><path d="M333 318L288 363L335 356Z" fill="#a52a02" stroke="#a52a02"></path><path d="M335 404L381 449L382 406Z" fill="#942604" stroke="#942604"></path><path d="M435 135L381 137L429 182Z" fill="#631a03" stroke="#631a03"></path><path d="M334 137L381 137L335 87Z" fill="#9c2803" stroke="#9c2803"></path><path d="M286 267L284 311L339 269Z" fill="#731e05" stroke="#731e05"></path><path d="M620 402L621 363L578 358Z" fill="#832205" stroke="#832205"></path><path d="M670 267L624 223L621 269Z" fill="#7b2005" stroke="#7b2005"></path><path d="M621 269L624 223L579 227Z" fill="#942604" stroke="#942604"></path><path d="M573 183L575 137L530 138Z" fill="#9c2803" stroke="#9c2803"></path><path d="M291 176L289 221L336 183Z" fill="#5b1802" stroke="#5b1802"></path><path d="M336 183L289 221L339 225Z" fill="#8c2405" stroke="#8c2405"></path><path d="M284 311L288 363L333 318Z" fill="#731e05" stroke="#731e05"></path><path d="M335 404L333 449L381 449Z" fill="#8c2405" stroke="#8c2405"></path><path d="M623 176L575 137L573 183Z" fill="#531601" stroke="#531601"></path><path d="M481 90L434 93L482 133Z" fill="#9c2803" stroke="#9c2803"></path><path d="M624 453L620 402L579 408Z" fill="#9c2803" stroke="#9c2803"></path><path d="M579 408L620 402L578 358Z" fill="#8c2405" stroke="#8c2405"></path><path d="M671 312L670 267L623 311Z" fill="#6b1c04" stroke="#6b1c04"></path><path d="M524 446L573 452L526 405Z" fill="#531601" stroke="#531601"></path><path d="M477 492L524 446L476 447Z" fill="#942604" stroke="#942604"></path><path d="M386 88L381 137L435 135Z" fill="#731e05" stroke="#731e05"></path><path d="M381 137L334 137L382 177Z" fill="#631a03" stroke="#631a03"></path><path d="M238 401L290 401L288 363Z" fill="#942604" stroke="#942604"></path><path d="M288 363L290 401L335 404Z" fill="#7b2005" stroke="#7b2005"></path><path d="M290 401L333 449L335 404Z" fill="#5b1802" stroke="#5b1802"></path><path d="M434 494L477 492L431 451Z" fill="#832205" stroke="#832205"></path><path d="M434 494L431 451L386 497Z" fill="#832205" stroke="#832205"></path><path d="M431 451L477 492L476 447Z" fill="#5b1802" stroke="#5b1802"></path><path d="M481 90L482 133L531 92Z" fill="#9c2803" stroke="#9c2803"></path><path d="M482 133L434 93L435 135Z" fill="#832205" stroke="#832205"></path><path d="M386 497L431 451L381 449Z" fill="#942604" stroke="#942604"></path><path d="M334 137L291 176L336 183Z" fill="#631a03" stroke="#631a03"></path><path d="M238 269L243 311L286 267Z" fill="#832205" stroke="#832205"></path><path d="M624 223L623 176L573 183Z" fill="#6b1c04" stroke="#6b1c04"></path><path d="M531 92L482 133L530 138Z" fill="#6b1c04" stroke="#6b1c04"></path><path d="M482 540L524 492L477 492Z" fill="#631a03" stroke="#631a03"></path><path d="M477 492L524 492L524 446Z" fill="#9c2803" stroke="#9c2803"></path><path d="M286 267L243 311L284 311Z" fill="#5b1802" stroke="#5b1802"></path><path d="M284 311L239 360L288 363Z" fill="#8c2405" stroke="#8c2405"></path><path d="M238 269L286 267L236 222Z" fill="#7b2005" stroke="#7b2005"></path><path d="M577 87L531 92L575 137Z" fill="#8c2405" stroke="#8c2405"></path><path d="M575 137L531 92L530 138Z" fill="#6b1c04" stroke="#6b1c04"></path><path d="M671 312L623 311L669 359Z" fill="#832205" stroke="#832205"></path><path d="M623 311L670 267L621 269Z" fill="#531601" stroke="#531601"></path><path d="M624 223L670 183L623 176Z" fill="#631a03" stroke="#631a03"></path><path d="M669 359L623 311L621 363Z" fill="#531601" stroke="#531601"></path><path d="M339 494L386 497L381 449Z" fill="#8c2405" stroke="#8c2405"></path><path d="M434 494L435 540L477 492Z" fill="#9c2803" stroke="#9c2803"></path><path d="M428 41L386 88L434 93Z" fill="#a52a02" stroke="#a52a02"></path><path d="M434 93L386 88L435 135Z" fill="#9c2803" stroke="#9c2803"></path><path d="M241 182L289 221L291 176Z" fill="#5b1802" stroke="#5b1802"></path><path d="M236 222L286 267L289 221Z" fill="#9c2803" stroke="#9c2803"></path><path d="M672 404L621 363L620 402Z" fill="#942604" stroke="#942604"></path><path d="M672 404L669 359L621 363Z" fill="#9c2803" stroke="#9c2803"></path><path d="M670 267L669 224L624 223Z" fill="#9c2803" stroke="#9c2803"></path><path d="M243 311L239 360L284 311Z" fill="#5b1802" stroke="#5b1802"></path><path d="M290 401L286 450L333 449Z" fill="#7b2005" stroke="#7b2005"></path><path d="M190 313L239 360L243 311Z" fill="#531601" stroke="#531601"></path><path d="M669 138L623 136L623 176Z" fill="#9c2803" stroke="#9c2803"></path><path d="M623 176L623 136L575 137Z" fill="#631a03" stroke="#631a03"></path><path d="M529 540L574 492L524 492Z" fill="#832205" stroke="#832205"></path><path d="M524 492L574 492L573 452Z" fill="#5b1802" stroke="#5b1802"></path><path d="M573 452L624 453L579 408Z" fill="#531601" stroke="#531601"></path><path d="M621 491L624 453L573 452Z" fill="#531601" stroke="#531601"></path><path d="M287 135L291 176L334 137Z" fill="#6b1c04" stroke="#6b1c04"></path><path d="M241 182L236 222L289 221Z" fill="#8c2405" stroke="#8c2405"></path><path d="M192 361L238 401L239 360Z" fill="#6b1c04" stroke="#6b1c04"></path><path d="M238 401L286 450L290 401Z" fill="#832205" stroke="#832205"></path><path d="M333 449L339 494L381 449Z" fill="#531601" stroke="#531601"></path><path d="M291 88L287 135L334 137Z" fill="#631a03" stroke="#631a03"></path><path d="M291 497L339 494L333 449Z" fill="#631a03" stroke="#631a03"></path><path d="M620 89L577 87L575 137Z" fill="#a52a02" stroke="#a52a02"></path><path d="M526 41L476 41L481 90Z" fill="#631a03" stroke="#631a03"></path><path d="M481 90L476 41L434 93Z" fill="#942604" stroke="#942604"></path><path d="M386 88L335 87L381 137Z" fill="#832205" stroke="#832205"></path><path d="M384 45L335 87L386 88Z" fill="#8c2405" stroke="#8c2405"></path><path d="M719 225L670 183L669 224Z" fill="#731e05" stroke="#731e05"></path><path d="M669 224L670 183L624 223Z" fill="#7b2005" stroke="#7b2005"></path><path d="M623 136L620 89L575 137Z" fill="#6b1c04" stroke="#6b1c04"></path><path d="M719 225L669 224L670 267Z" fill="#7b2005" stroke="#7b2005"></path><path d="M671 446L672 404L620 402Z" fill="#832205" stroke="#832205"></path><path d="M722 315L717 268L671 312Z" fill="#942604" stroke="#942604"></path><path d="M671 312L717 268L670 267Z" fill="#6b1c04" stroke="#6b1c04"></path><path d="M287 135L241 182L291 176Z" fill="#9c2803" stroke="#9c2803"></path><path d="M190 313L243 311L238 269Z" fill="#631a03" stroke="#631a03"></path><path d="M239 360L238 401L288 363Z" fill="#731e05" stroke="#731e05"></path><path d="M383 540L435 540L386 497Z" fill="#531601" stroke="#531601"></path><path d="M386 497L435 540L434 494Z" fill="#a52a02" stroke="#a52a02"></path><path d="M435 540L482 540L477 492Z" fill="#731e05" stroke="#731e05"></path><path d="M526 41L481 90L531 92Z" fill="#832205" stroke="#832205"></path><path d="M476 41L428 41L434 93Z" fill="#9c2803" stroke="#9c2803"></path><path d="M574 492L621 491L573 452Z" fill="#531601" stroke="#531601"></path><path d="M624 453L671 446L620 402Z" fill="#9c2803" stroke="#9c2803"></path><path d="M577 540L621 491L574 492Z" fill="#6b1c04" stroke="#6b1c04"></path><path d="M482 540L529 540L524 492Z" fill="#5b1802" stroke="#5b1802"></path><path d="M339 494L383 540L386 497Z" fill="#5b1802" stroke="#5b1802"></path><path d="M332 540L383 540L339 494Z" fill="#9c2803" stroke="#9c2803"></path><path d="M428 41L384 45L386 88Z" fill="#8c2405" stroke="#8c2405"></path><path d="M673 89L620 89L623 136Z" fill="#9c2803" stroke="#9c2803"></path><path d="M572 46L526 41L531 92Z" fill="#942604" stroke="#942604"></path><path d="M572 46L531 92L577 87Z" fill="#531601" stroke="#531601"></path><path d="M722 315L671 312L717 356Z" fill="#8c2405" stroke="#8c2405"></path><path d="M670 183L669 138L623 176Z" fill="#6b1c04" stroke="#6b1c04"></path><path d="M242 491L291 497L286 450Z" fill="#7b2005" stroke="#7b2005"></path><path d="M286 450L291 497L333 449Z" fill="#8c2405" stroke="#8c2405"></path><path d="M716 176L669 138L670 183Z" fill="#942604" stroke="#942604"></path><path d="M673 496L671 446L624 453Z" fill="#942604" stroke="#942604"></path><path d="M717 356L671 312L669 359Z" fill="#6b1c04" stroke="#6b1c04"></path><path d="M335 87L291 88L334 137Z" fill="#9c2803" stroke="#9c2803"></path><path d="M287 135L242 131L241 182Z" fill="#7b2005" stroke="#7b2005"></path><path d="M333 43L291 88L335 87Z" fill="#531601" stroke="#531601"></path><path d="M717 356L669 359L672 404Z" fill="#7b2005" stroke="#7b2005"></path><path d="M188 273L238 269L193 226Z" fill="#5b1802" stroke="#5b1802"></path><path d="M188 273L190 313L238 269Z" fill="#942604" stroke="#942604"></path><path d="M721 402L717 356L672 404Z" fill="#832205" stroke="#832205"></path><path d="M193 447L241 453L238 401Z" fill="#8c2405" stroke="#8c2405"></path><path d="M238 401L241 453L286 450Z" fill="#5b1802" stroke="#5b1802"></path><path d="M291 88L242 131L287 135Z" fill="#5b1802" stroke="#5b1802"></path><path d="M193 226L238 269L236 222Z" fill="#832205" stroke="#832205"></path><path d="M193 226L236 222L195 177Z" fill="#8c2405" stroke="#8c2405"></path><path d="M764 266L719 225L717 268Z" fill="#731e05" stroke="#731e05"></path><path d="M717 268L719 225L670 267Z" fill="#531601" stroke="#531601"></path><path d="M195 177L236 222L241 182Z" fill="#832205" stroke="#832205"></path><path d="M621 41L572 46L577 87Z" fill="#6b1c04" stroke="#6b1c04"></path><path d="M190 407L192 361L147 359Z" fill="#7b2005" stroke="#7b2005"></path><path d="M190 313L192 361L239 360Z" fill="#a52a02" stroke="#a52a02"></path><path d="M529 540L577 540L574 492Z" fill="#7b2005" stroke="#7b2005"></path><path d="M621 491L673 496L624 453Z" fill="#a52a02" stroke="#a52a02"></path><path d="M291 540L332 540L291 497Z" fill="#942604" stroke="#942604"></path><path d="M291 497L332 540L339 494Z" fill="#8c2405" stroke="#8c2405"></path><path d="M384 45L333 43L335 87Z" fill="#9c2803" stroke="#9c2803"></path><path d="M291 88L241 88L242 131Z" fill="#8c2405" stroke="#8c2405"></path><path d="M380 0L333 43L384 45Z" fill="#631a03" stroke="#631a03"></path><path d="M719 225L716 176L670 183Z" fill="#731e05" stroke="#731e05"></path><path d="M669 138L673 89L623 136Z" fill="#7b2005" stroke="#7b2005"></path><path d="M671 446L721 402L672 404Z" fill="#a52a02" stroke="#a52a02"></path><path d="M768 314L764 266L722 315Z" fill="#9c2803" stroke="#9c2803"></path><path d="M722 452L721 402L671 446Z" fill="#6b1c04" stroke="#6b1c04"></path><path d="M242 131L195 177L241 182Z" fill="#7b2005" stroke="#7b2005"></path><path d="M140 317L190 313L188 273Z" fill="#731e05" stroke="#731e05"></path><path d="M192 361L190 407L238 401Z" fill="#832205" stroke="#832205"></path><path d="M241 453L242 491L286 450Z" fill="#7b2005" stroke="#7b2005"></path><path d="M147 359L192 361L190 313Z" fill="#7b2005" stroke="#7b2005"></path><path d="M195 495L242 491L241 453Z" fill="#5b1802" stroke="#5b1802"></path><path d="M526 41L478 0L476 41Z" fill="#9c2803" stroke="#9c2803"></path><path d="M476 41L434 0L428 41Z" fill="#a52a02" stroke="#a52a02"></path><path d="M428 41L380 0L384 45Z" fill="#6b1c04" stroke="#6b1c04"></path><path d="M525 0L478 0L526 41Z" fill="#731e05" stroke="#731e05"></path><path d="M478 0L434 0L476 41Z" fill="#631a03" stroke="#631a03"></path><path d="M625 540L673 496L621 491Z" fill="#8c2405" stroke="#8c2405"></path><path d="M237 540L291 540L291 497Z" fill="#731e05" stroke="#731e05"></path><path d="M717 93L673 89L669 138Z" fill="#6b1c04" stroke="#6b1c04"></path><path d="M620 89L621 41L577 87Z" fill="#942604" stroke="#942604"></path><path d="M576 0L525 0L526 41Z" fill="#832205" stroke="#832205"></path><path d="M289 46L241 88L291 88Z" fill="#9c2803" stroke="#9c2803"></path><path d="M242 131L192 137L195 177Z" fill="#942604" stroke="#942604"></path><path d="M334 0L289 46L333 43Z" fill="#9c2803" stroke="#9c2803"></path><path d="M333 43L289 46L291 88Z" fill="#631a03" stroke="#631a03"></path><path d="M577 540L625 540L621 491Z" fill="#942604" stroke="#942604"></path><path d="M576 0L526 41L572 46Z" fill="#942604" stroke="#942604"></path><path d="M674 48L621 41L620 89Z" fill="#942604" stroke="#942604"></path><path d="M434 0L380 0L428 41Z" fill="#6b1c04" stroke="#6b1c04"></path><path d="M190 407L193 447L238 401Z" fill="#6b1c04" stroke="#6b1c04"></path><path d="M242 491L237 540L291 497Z" fill="#531601" stroke="#531601"></path><path d="M189 88L192 137L242 131Z" fill="#6b1c04" stroke="#6b1c04"></path><path d="M140 317L188 273L140 266Z" fill="#631a03" stroke="#631a03"></path><path d="M768 314L722 315L764 356Z" fill="#631a03" stroke="#631a03"></path><path d="M722 315L764 266L717 268Z" fill="#531601" stroke="#531601"></path><path d="M719 225L764 183L716 176Z" fill="#6b1c04" stroke="#6b1c04"></path><path d="M716 176L723 134L669 138Z" fill="#8c2405" stroke="#8c2405"></path><path d="M720 493L722 452L673 496Z" fill="#631a03" stroke="#631a03"></path><path d="M673 496L722 452L671 446Z" fill="#6b1c04" stroke="#6b1c04"></path><path d="M764 356L722 315L717 356Z" fill="#631a03" stroke="#631a03"></path><path d="M764 183L723 134L716 176Z" fill="#a52a02" stroke="#a52a02"></path><path d="M673 89L674 48L620 89Z" fill="#832205" stroke="#832205"></path><path d="M764 356L717 356L721 402Z" fill="#942604" stroke="#942604"></path><path d="M768 404L764 356L721 402Z" fill="#631a03" stroke="#631a03"></path><path d="M815 228L765 225L764 266Z" fill="#9c2803" stroke="#9c2803"></path><path d="M764 266L765 225L719 225Z" fill="#6b1c04" stroke="#6b1c04"></path><path d="M621 41L576 0L572 46Z" fill="#9c2803" stroke="#9c2803"></path><path d="M188 273L193 226L140 266Z" fill="#631a03" stroke="#631a03"></path><path d="M140 317L147 359L190 313Z" fill="#531601" stroke="#531601"></path><path d="M190 407L145 453L193 447Z" fill="#8c2405" stroke="#8c2405"></path><path d="M140 266L193 226L145 222Z" fill="#5b1802" stroke="#5b1802"></path><path d="M289 46L237 45L241 88Z" fill="#a52a02" stroke="#a52a02"></path><path d="M380 0L334 0L333 43Z" fill="#9c2803" stroke="#9c2803"></path><path d="M145 222L193 226L195 177Z" fill="#942604" stroke="#942604"></path><path d="M145 176L145 222L195 177Z" fill="#631a03" stroke="#631a03"></path><path d="M767 131L764 183L815 183Z" fill="#531601" stroke="#531601"></path><path d="M765 225L764 183L719 225Z" fill="#731e05" stroke="#731e05"></path><path d="M717 93L669 138L723 134Z" fill="#9c2803" stroke="#9c2803"></path><path d="M716 46L674 48L673 89Z" fill="#832205" stroke="#832205"></path><path d="M621 41L621 0L576 0Z" fill="#631a03" stroke="#631a03"></path><path d="M765 88L717 93L723 134Z" fill="#731e05" stroke="#731e05"></path><path d="M625 540L675 540L673 496Z" fill="#7b2005" stroke="#7b2005"></path><path d="M195 495L241 453L193 447Z" fill="#8c2405" stroke="#8c2405"></path><path d="M195 495L237 540L242 491Z" fill="#832205" stroke="#832205"></path><path d="M145 453L195 495L193 447Z" fill="#6b1c04" stroke="#6b1c04"></path><path d="M767 446L768 404L721 402Z" fill="#942604" stroke="#942604"></path><path d="M815 358L814 314L768 314Z" fill="#8c2405" stroke="#8c2405"></path><path d="M767 446L721 402L722 452Z" fill="#531601" stroke="#531601"></path><path d="M675 540L720 493L673 496Z" fill="#9c2803" stroke="#9c2803"></path><path d="M284 0L237 45L289 46Z" fill="#8c2405" stroke="#8c2405"></path><path d="M241 88L189 88L242 131Z" fill="#942604" stroke="#942604"></path><path d="M192 137L145 176L195 177Z" fill="#5b1802" stroke="#5b1802"></path><path d="M140 136L145 176L192 137Z" fill="#731e05" stroke="#731e05"></path><path d="M96 224L95 267L140 266Z" fill="#531601" stroke="#531601"></path><path d="M147 359L140 403L190 407Z" fill="#531601" stroke="#531601"></path><path d="M98 359L140 403L147 359Z" fill="#5b1802" stroke="#5b1802"></path><path d="M670 0L621 0L621 41Z" fill="#8c2405" stroke="#8c2405"></path><path d="M237 45L189 88L241 88Z" fill="#9c2803" stroke="#9c2803"></path><path d="M334 0L284 0L289 46Z" fill="#a52a02" stroke="#a52a02"></path><path d="M237 45L188 41L189 88Z" fill="#832205" stroke="#832205"></path><path d="M767 492L767 446L722 452Z" fill="#8c2405" stroke="#8c2405"></path><path d="M767 492L722 452L720 493Z" fill="#7b2005" stroke="#7b2005"></path><path d="M815 183L764 183L765 225Z" fill="#531601" stroke="#531601"></path><path d="M764 183L767 131L723 134Z" fill="#7b2005" stroke="#7b2005"></path><path d="M717 93L716 46L673 89Z" fill="#9c2803" stroke="#9c2803"></path><path d="M674 48L670 0L621 41Z" fill="#9c2803" stroke="#9c2803"></path><path d="M140 403L145 453L190 407Z" fill="#8c2405" stroke="#8c2405"></path><path d="M195 495L191 540L237 540Z" fill="#6b1c04" stroke="#6b1c04"></path><path d="M147 93L140 136L192 137Z" fill="#9c2803" stroke="#9c2803"></path><path d="M96 224L140 266L145 222Z" fill="#631a03" stroke="#631a03"></path><path d="M815 358L768 314L764 356Z" fill="#6b1c04" stroke="#6b1c04"></path><path d="M768 314L814 271L764 266Z" fill="#531601" stroke="#531601"></path><path d="M815 358L764 356L768 404Z" fill="#731e05" stroke="#731e05"></path><path d="M814 314L814 271L768 314Z" fill="#9c2803" stroke="#9c2803"></path><path d="M765 88L716 46L717 93Z" fill="#7b2005" stroke="#7b2005"></path><path d="M96 224L145 222L98 178Z" fill="#7b2005" stroke="#7b2005"></path><path d="M140 266L95 267L140 317Z" fill="#942604" stroke="#942604"></path><path d="M140 317L98 359L147 359Z" fill="#631a03" stroke="#631a03"></path><path d="M140 403L92 446L145 453Z" fill="#7b2005" stroke="#7b2005"></path><path d="M716 46L670 0L674 48Z" fill="#9c2803" stroke="#9c2803"></path><path d="M147 540L191 540L195 495Z" fill="#942604" stroke="#942604"></path><path d="M675 540L723 540L720 493Z" fill="#6b1c04" stroke="#6b1c04"></path><path d="M813 403L768 404L767 446Z" fill="#631a03" stroke="#631a03"></path><path d="M813 403L815 358L768 404Z" fill="#6b1c04" stroke="#6b1c04"></path><path d="M864 271L815 228L814 271Z" fill="#9c2803" stroke="#9c2803"></path><path d="M814 271L815 228L764 266Z" fill="#6b1c04" stroke="#6b1c04"></path><path d="M864 271L814 271L814 314Z" fill="#942604" stroke="#942604"></path><path d="M92 317L98 359L140 317Z" fill="#8c2405" stroke="#8c2405"></path><path d="M284 0L239 0L237 45Z" fill="#6b1c04" stroke="#6b1c04"></path><path d="M189 88L147 93L192 137Z" fill="#a52a02" stroke="#a52a02"></path><path d="M95 267L92 317L140 317Z" fill="#531601" stroke="#531601"></path><path d="M98 178L145 222L145 176Z" fill="#631a03" stroke="#631a03"></path><path d="M95 267L47 269L92 317Z" fill="#a52a02" stroke="#a52a02"></path><path d="M194 0L188 41L237 45Z" fill="#a52a02" stroke="#a52a02"></path><path d="M143 47L147 93L189 88Z" fill="#731e05" stroke="#731e05"></path><path d="M140 136L98 178L145 176Z" fill="#942604" stroke="#942604"></path><path d="M723 540L767 492L720 493Z" fill="#832205" stroke="#832205"></path><path d="M767 131L765 88L723 134Z" fill="#7b2005" stroke="#7b2005"></path><path d="M716 46L718 0L670 0Z" fill="#7b2005" stroke="#7b2005"></path><path d="M812 92L765 88L767 131Z" fill="#8c2405" stroke="#8c2405"></path><path d="M99 497L144 492L145 453Z" fill="#731e05" stroke="#731e05"></path><path d="M145 453L144 492L195 495Z" fill="#6b1c04" stroke="#6b1c04"></path><path d="M817 449L813 403L767 446Z" fill="#942604" stroke="#942604"></path><path d="M815 228L815 183L765 225Z" fill="#531601" stroke="#531601"></path><path d="M47 356L96 401L98 359Z" fill="#9c2803" stroke="#9c2803"></path><path d="M98 359L96 401L140 403Z" fill="#832205" stroke="#832205"></path><path d="M99 131L98 178L140 136Z" fill="#5b1802" stroke="#5b1802"></path><path d="M93 87L99 131L147 93Z" fill="#531601" stroke="#531601"></path><path d="M147 93L99 131L140 136Z" fill="#8c2405" stroke="#8c2405"></path><path d="M50 224L95 267L96 224Z" fill="#a52a02" stroke="#a52a02"></path><path d="M50 224L47 269L95 267Z" fill="#832205" stroke="#832205"></path><path d="M771 47L718 0L716 46Z" fill="#832205" stroke="#832205"></path><path d="M813 493L817 449L767 446Z" fill="#a52a02" stroke="#a52a02"></path><path d="M866 318L814 314L815 358Z" fill="#832205" stroke="#832205"></path><path d="M862 226L815 183L815 228Z" fill="#9c2803" stroke="#9c2803"></path><path d="M862 181L818 136L815 183Z" fill="#631a03" stroke="#631a03"></path><path d="M813 493L767 446L767 492Z" fill="#8c2405" stroke="#8c2405"></path><path d="M239 0L194 0L237 45Z" fill="#8c2405" stroke="#8c2405"></path><path d="M188 41L143 47L189 88Z" fill="#a52a02" stroke="#a52a02"></path><path d="M864 271L814 314L866 318Z" fill="#9c2803" stroke="#9c2803"></path><path d="M815 183L818 136L767 131Z" fill="#a52a02" stroke="#a52a02"></path><path d="M765 88L771 47L716 46Z" fill="#9c2803" stroke="#9c2803"></path><path d="M96 401L92 446L140 403Z" fill="#6b1c04" stroke="#6b1c04"></path><path d="M144 492L147 540L195 495Z" fill="#832205" stroke="#832205"></path><path d="M50 407L92 446L96 401Z" fill="#6b1c04" stroke="#6b1c04"></path><path d="M99 497L147 540L144 492Z" fill="#5b1802" stroke="#5b1802"></path><path d="M723 540L768 540L767 492Z" fill="#731e05" stroke="#731e05"></path><path d="M143 0L143 47L188 41Z" fill="#942604" stroke="#942604"></path><path d="M812 92L771 47L765 88Z" fill="#8c2405" stroke="#8c2405"></path><path d="M866 318L815 358L863 358Z" fill="#531601" stroke="#531601"></path><path d="M818 136L812 92L767 131Z" fill="#5b1802" stroke="#5b1802"></path><path d="M864 92L812 92L818 136Z" fill="#7b2005" stroke="#7b2005"></path><path d="M768 540L813 493L767 492Z" fill="#5b1802" stroke="#5b1802"></path><path d="M863 358L815 358L865 402Z" fill="#9c2803" stroke="#9c2803"></path><path d="M815 358L813 403L865 402Z" fill="#832205" stroke="#832205"></path><path d="M50 224L96 224L98 178Z" fill="#7b2005" stroke="#7b2005"></path><path d="M92 317L47 356L98 359Z" fill="#9c2803" stroke="#9c2803"></path><path d="M864 271L862 226L815 228Z" fill="#832205" stroke="#832205"></path><path d="M47 269L46 315L92 317Z" fill="#731e05" stroke="#731e05"></path><path d="M865 402L813 403L860 446Z" fill="#832205" stroke="#832205"></path><path d="M48 491L99 497L92 446Z" fill="#531601" stroke="#531601"></path><path d="M92 446L99 497L145 453Z" fill="#731e05" stroke="#731e05"></path><path d="M47 177L50 224L98 178Z" fill="#631a03" stroke="#631a03"></path><path d="M47 177L98 178L49 132Z" fill="#631a03" stroke="#631a03"></path><path d="M46 315L47 356L92 317Z" fill="#531601" stroke="#531601"></path><path d="M99 44L93 87L143 47Z" fill="#631a03" stroke="#631a03"></path><path d="M143 47L93 87L147 93Z" fill="#5b1802" stroke="#5b1802"></path><path d="M910 225L862 181L862 226Z" fill="#942604" stroke="#942604"></path><path d="M862 226L862 181L815 183Z" fill="#731e05" stroke="#731e05"></path><path d="M863 136L862 181L915 179Z" fill="#7b2005" stroke="#7b2005"></path><path d="M47 356L50 407L96 401Z" fill="#942604" stroke="#942604"></path><path d="M860 446L813 403L817 449Z" fill="#731e05" stroke="#731e05"></path><path d="M914 359L911 313L866 318Z" fill="#5b1802" stroke="#5b1802"></path><path d="M49 132L98 178L99 131Z" fill="#942604" stroke="#942604"></path><path d="M0 268L0 312L47 269Z" fill="#631a03" stroke="#631a03"></path><path d="M47 269L0 312L46 315Z" fill="#832205" stroke="#832205"></path><path d="M814 43L771 47L812 92Z" fill="#731e05" stroke="#731e05"></path><path d="M814 43L770 0L771 47Z" fill="#731e05" stroke="#731e05"></path><path d="M771 47L770 0L718 0Z" fill="#631a03" stroke="#631a03"></path><path d="M194 0L143 0L188 41Z" fill="#731e05" stroke="#731e05"></path><path d="M863 494L860 446L817 449Z" fill="#5b1802" stroke="#5b1802"></path><path d="M863 494L817 449L813 493Z" fill="#6b1c04" stroke="#6b1c04"></path><path d="M50 407L50 446L92 446Z" fill="#9c2803" stroke="#9c2803"></path><path d="M0 401L50 446L50 407Z" fill="#6b1c04" stroke="#6b1c04"></path><path d="M910 225L862 226L864 271Z" fill="#942604" stroke="#942604"></path><path d="M862 181L863 136L818 136Z" fill="#942604" stroke="#942604"></path><path d="M143 0L99 44L143 47Z" fill="#631a03" stroke="#631a03"></path><path d="M93 87L49 132L99 131Z" fill="#631a03" stroke="#631a03"></path><path d="M864 92L814 43L812 92Z" fill="#942604" stroke="#942604"></path><path d="M768 540L817 540L813 493Z" fill="#7b2005" stroke="#7b2005"></path><path d="M48 88L49 132L93 87Z" fill="#531601" stroke="#531601"></path><path d="M49 540L94 540L99 497Z" fill="#631a03" stroke="#631a03"></path><path d="M99 497L94 540L147 540Z" fill="#731e05" stroke="#731e05"></path><path d="M817 540L863 494L813 493Z" fill="#5b1802" stroke="#5b1802"></path><path d="M914 359L863 358L909 404Z" fill="#832205" stroke="#832205"></path><path d="M0 452L48 491L50 446Z" fill="#731e05" stroke="#731e05"></path><path d="M50 446L48 491L92 446Z" fill="#942604" stroke="#942604"></path><path d="M0 401L50 407L47 356Z" fill="#631a03" stroke="#631a03"></path><path d="M910 133L864 92L863 136Z" fill="#531601" stroke="#531601"></path><path d="M863 136L864 92L818 136Z" fill="#9c2803" stroke="#9c2803"></path><path d="M914 359L866 318L863 358Z" fill="#531601" stroke="#531601"></path><path d="M866 318L911 313L864 271Z" fill="#8c2405" stroke="#8c2405"></path><path d="M863 358L865 402L909 404Z" fill="#7b2005" stroke="#7b2005"></path><path d="M911 313L912 268L864 271Z" fill="#7b2005" stroke="#7b2005"></path><path d="M0 268L47 269L0 228Z" fill="#942604" stroke="#942604"></path><path d="M46 315L0 358L47 356Z" fill="#942604" stroke="#942604"></path><path d="M47 269L50 224L0 228Z" fill="#7b2005" stroke="#7b2005"></path><path d="M49 42L48 88L93 87Z" fill="#832205" stroke="#832205"></path><path d="M0 228L50 224L0 183Z" fill="#832205" stroke="#832205"></path><path d="M49 42L93 87L99 44Z" fill="#531601" stroke="#531601"></path><path d="M50 224L47 177L0 183Z" fill="#5b1802" stroke="#5b1802"></path><path d="M912 268L910 225L864 271Z" fill="#5b1802" stroke="#5b1802"></path><path d="M0 312L0 358L46 315Z" fill="#8c2405" stroke="#8c2405"></path><path d="M0 183L47 177L0 135Z" fill="#731e05" stroke="#731e05"></path><path d="M909 404L865 402L860 446Z" fill="#8c2405" stroke="#8c2405"></path><path d="M911 313L960 267L912 268Z" fill="#832205" stroke="#832205"></path><path d="M862 41L817 0L814 43Z" fill="#531601" stroke="#531601"></path><path d="M814 43L817 0L770 0Z" fill="#9c2803" stroke="#9c2803"></path><path d="M915 448L909 404L860 446Z" fill="#8c2405" stroke="#8c2405"></path><path d="M143 0L92 0L99 44Z" fill="#6b1c04" stroke="#6b1c04"></path><path d="M0 358L0 401L47 356Z" fill="#5b1802" stroke="#5b1802"></path><path d="M0 135L47 177L49 132Z" fill="#5b1802" stroke="#5b1802"></path><path d="M0 135L49 132L48 88Z" fill="#5b1802" stroke="#5b1802"></path><path d="M910 225L915 179L862 181Z" fill="#832205" stroke="#832205"></path><path d="M864 92L862 41L814 43Z" fill="#731e05" stroke="#731e05"></path><path d="M960 227L915 179L910 225Z" fill="#832205" stroke="#832205"></path><path d="M960 227L910 225L912 268Z" fill="#5b1802" stroke="#5b1802"></path><path d="M0 540L49 540L48 491Z" fill="#9c2803" stroke="#9c2803"></path><path d="M48 491L49 540L99 497Z" fill="#942604" stroke="#942604"></path><path d="M908 44L862 41L864 92Z" fill="#531601" stroke="#531601"></path><path d="M817 540L866 540L863 494Z" fill="#531601" stroke="#531601"></path><path d="M863 494L915 448L860 446Z" fill="#631a03" stroke="#631a03"></path><path d="M92 0L49 42L99 44Z" fill="#942604" stroke="#942604"></path><path d="M915 179L910 133L863 136Z" fill="#5b1802" stroke="#5b1802"></path><path d="M0 86L0 135L48 88Z" fill="#631a03" stroke="#631a03"></path><path d="M0 401L0 452L50 446Z" fill="#a52a02" stroke="#a52a02"></path><path d="M960 362L960 318L914 359Z" fill="#9c2803" stroke="#9c2803"></path><path d="M914 359L960 318L911 313Z" fill="#5b1802" stroke="#5b1802"></path><path d="M915 497L915 448L863 494Z" fill="#631a03" stroke="#631a03"></path><path d="M0 452L0 491L48 491Z" fill="#942604" stroke="#942604"></path><path d="M960 132L911 87L910 133Z" fill="#7b2005" stroke="#7b2005"></path><path d="M910 133L911 87L864 92Z" fill="#9c2803" stroke="#9c2803"></path><path d="M0 48L48 88L49 42Z" fill="#9c2803" stroke="#9c2803"></path><path d="M0 48L0 86L48 88Z" fill="#832205" stroke="#832205"></path><path d="M908 540L915 497L863 494Z" fill="#531601" stroke="#531601"></path><path d="M908 44L865 0L862 41Z" fill="#832205" stroke="#832205"></path><path d="M862 41L865 0L817 0Z" fill="#942604" stroke="#942604"></path><path d="M92 0L47 0L49 42Z" fill="#531601" stroke="#531601"></path><path d="M914 359L909 404L960 403Z" fill="#942604" stroke="#942604"></path><path d="M960 362L914 359L960 403Z" fill="#6b1c04" stroke="#6b1c04"></path><path d="M915 179L960 132L910 133Z" fill="#731e05" stroke="#731e05"></path><path d="M960 318L960 267L911 313Z" fill="#942604" stroke="#942604"></path><path d="M960 267L960 227L912 268Z" fill="#832205" stroke="#832205"></path><path d="M960 403L909 404L915 448Z" fill="#a52a02" stroke="#a52a02"></path><path d="M866 540L908 540L863 494Z" fill="#8c2405" stroke="#8c2405"></path><path d="M960 453L960 403L915 448Z" fill="#531601" stroke="#531601"></path><path d="M960 453L915 448L915 497Z" fill="#731e05" stroke="#731e05"></path><path d="M911 87L908 44L864 92Z" fill="#832205" stroke="#832205"></path><path d="M960 47L908 44L911 87Z" fill="#942604" stroke="#942604"></path><path d="M960 227L960 180L915 179Z" fill="#7b2005" stroke="#7b2005"></path><path d="M0 0L0 48L49 42Z" fill="#7b2005" stroke="#7b2005"></path><path d="M0 491L0 540L48 491Z" fill="#631a03" stroke="#631a03"></path><path d="M960 497L960 453L915 497Z" fill="#631a03" stroke="#631a03"></path><path d="M960 180L960 132L915 179Z" fill="#8c2405" stroke="#8c2405"></path><path d="M960 0L910 0L908 44Z" fill="#731e05" stroke="#731e05"></path><path d="M908 44L910 0L865 0Z" fill="#631a03" stroke="#631a03"></path><path d="M47 0L0 0L49 42Z" fill="#9c2803" stroke="#9c2803"></path><path d="M960 540L960 497L915 497Z" fill="#a52a02" stroke="#a52a02"></path><path d="M960 132L960 86L911 87Z" fill="#832205" stroke="#832205"></path><path d="M960 86L960 47L911 87Z" fill="#7b2005" stroke="#7b2005"></path><path d="M908 540L960 540L915 497Z" fill="#7b2005" stroke="#7b2005"></path><path d="M960 47L960 0L908 44Z" fill="#8c2405" stroke="#8c2405"></path></g></svg>